<svg xmlns="http://www.w3.org/2000/svg" viewBox="0 0 730.3 766.29"><defs><style>.cls-1{fill:#469937;}.cls-2{fill:#fbf2d1;}.cls-3{fill:#fffff3;}.cls-4{fill:#e5dcc0;}.cls-5{fill:#b5dc98;}.cls-6{fill:#79c26d;}</style></defs><g id="Layer_2" data-name="Layer 2"><g id="object"><path class="cls-1" d="M372.68,2.78a11.83,11.83,0,0,0-15.24,0L.53,272.78A4,4,0,0,0,0,274.25V738.17c0,15.47,10.85,28.12,24.11,28.12H706c13.26,0,24.11-12.65,24.11-28.12V274.25a3.81,3.81,0,0,0-.53-1.47Z"/><rect class="cls-2" x="99.37" y="83.92" width="537.96" height="496.69"/><rect class="cls-3" x="410.8" y="147.25" width="165.5" height="6.9"/><rect class="cls-3" x="159.44" y="199.84" width="416.87" height="6.9"/><rect class="cls-3" x="159.45" y="252.42" width="416.87" height="6.9"/><rect class="cls-3" x="159.44" y="305.89" width="416.87" height="6.9"/><rect class="cls-3" x="159.45" y="358.47" width="416.87" height="6.9"/><rect class="cls-3" x="159.44" y="413.89" width="416.87" height="6.9"/><rect class="cls-3" x="159.45" y="466.47" width="416.87" height="6.9"/><polygon class="cls-4" points="364.85 551.59 99.3 330.23 98.92 577.21 636.88 577.21 637.3 325 364.85 551.59"/><polygon class="cls-2" points="576.32 420.76 576.31 413.86 530.42 413.87 522.13 420.76 576.32 420.76"/><polygon class="cls-2" points="159.44 420.81 207.72 420.8 199.44 413.91 159.44 413.91 159.44 420.81"/><polygon class="cls-2" points="159.45 466.49 159.46 473.39 270.88 473.38 262.6 466.48 159.45 466.49"/><polygon class="cls-2" points="576.33 473.34 576.33 466.44 467.2 466.46 458.91 473.35 576.33 473.34"/><path class="cls-5" d="M.65,273.13a3.09,3.09,0,0,0-.35,1.12V738.17a30.15,30.15,0,0,0,8.58,21.46l287.58-240.1Z"/><path class="cls-5" d="M729.94,273.13a3,3,0,0,1,.36,1.12V738.17a30.15,30.15,0,0,1-8.58,21.46L434.14,519.53Z"/><path class="cls-6" d="M410.52,499.64H320.06L8.22,759.27a22.18,22.18,0,0,0,15.89,7H706a22.23,22.23,0,0,0,16.1-7.23Z"/></g></g></svg>