<svg xmlns="http://www.w3.org/2000/svg" viewBox="0 0 231.93 298.33"><defs><style>.cls-1{fill:#3d2c33;}.cls-2{fill:#7e66b2;}.cls-3{fill:#c2c2c4;}.cls-4{fill:#f6f5fc;}.cls-5{fill:#a1bace;}.cls-6{fill:#9575cd;}.cls-7{fill:#f2afb2;}.cls-8{fill:#6d77b1;}</style></defs><g id="Layer_2" data-name="Layer 2"><g id="NB2"><path class="cls-1" d="M3.28,43.05a1.47,1.47,0,0,1-.85-.26,5.58,5.58,0,0,1-2.42-4,5.57,5.57,0,0,1,2.27-4.53l.29-.2A8.7,8.7,0,0,1,9,33.56a9,9,0,0,1,5.12,5.32,1.53,1.53,0,1,1-2.8,1.21A6.15,6.15,0,0,0,8,36.45a5.49,5.49,0,0,0-3.86.25,2.75,2.75,0,0,0-1.08,1.89,2.63,2.63,0,0,0,1.09,1.68,1.52,1.52,0,0,1-.87,2.78Z"/><path class="cls-1" d="M3.28,76.15a1.47,1.47,0,0,1-.85-.26,5.63,5.63,0,0,1-2.42-4,5.56,5.56,0,0,1,2.27-4.53l.29-.2A8.64,8.64,0,0,1,9,66.66,9,9,0,0,1,14.11,72a1.53,1.53,0,1,1-2.8,1.21A6.15,6.15,0,0,0,8,69.55a5.49,5.49,0,0,0-3.86.25,2.75,2.75,0,0,0-1.08,1.89,2.66,2.66,0,0,0,1.09,1.68,1.52,1.52,0,0,1-.87,2.78Z"/><path class="cls-1" d="M3.28,109.25a1.54,1.54,0,0,1-.85-.26,5.05,5.05,0,0,1-.15-8.54l.29-.19A8.64,8.64,0,0,1,9,99.76a9,9,0,0,1,5.12,5.32,1.53,1.53,0,1,1-2.8,1.21A6.12,6.12,0,0,0,8,102.65a5.49,5.49,0,0,0-3.86.25,2.73,2.73,0,0,0-1.08,1.89,2.6,2.6,0,0,0,1.09,1.67,1.53,1.53,0,0,1-.87,2.79Z"/><path class="cls-1" d="M3.28,144.89a1.47,1.47,0,0,1-.85-.26,5,5,0,0,1-.15-8.53l.29-.2A8.7,8.7,0,0,1,9,135.4a9,9,0,0,1,5.12,5.32,1.53,1.53,0,0,1-2.8,1.22A6.14,6.14,0,0,0,8,138.29a5.49,5.49,0,0,0-3.86.25,2.75,2.75,0,0,0-1.08,1.89,2.63,2.63,0,0,0,1.09,1.68,1.52,1.52,0,0,1-.87,2.78Z"/><path class="cls-1" d="M3.28,179.52a1.47,1.47,0,0,1-.85-.26,5.63,5.63,0,0,1-2.42-4,5.55,5.55,0,0,1,2.27-4.52l.29-.2A8.64,8.64,0,0,1,9,170a9,9,0,0,1,5.12,5.32,1.53,1.53,0,1,1-2.8,1.21A6.12,6.12,0,0,0,8,172.92a5.49,5.49,0,0,0-3.86.25,2.75,2.75,0,0,0-1.08,1.89,2.6,2.6,0,0,0,1.09,1.67,1.53,1.53,0,0,1-.87,2.79Z"/><path class="cls-1" d="M3.28,213.63a1.54,1.54,0,0,1-.85-.26,5.63,5.63,0,0,1-2.42-4,5.57,5.57,0,0,1,2.27-4.53l.29-.19A8.68,8.68,0,0,1,9,204.13a9,9,0,0,1,5.12,5.33,1.53,1.53,0,1,1-2.8,1.21A6.12,6.12,0,0,0,8,207a5.56,5.56,0,0,0-3.86.24,2.77,2.77,0,0,0-1.08,1.9,2.6,2.6,0,0,0,1.09,1.67,1.53,1.53,0,0,1-.87,2.79Z"/><path class="cls-2" d="M220.15,298.33a17.69,17.69,0,0,0,11.78-16.49v-252a17.87,17.87,0,0,0-14.86-17.36H95.67c-.34.06-.69.11-1,.18H9.28V298.33Z"/><path class="cls-3" d="M219.64,295.28a17.71,17.71,0,0,0,11.78-16.5v-252A17.87,17.87,0,0,0,216.56,9.43H95.16c-.34.06-.69.1-1,.18H8.77V295.28Z"/><path class="cls-4" d="M214,285.85a17.71,17.71,0,0,0,11.78-16.5v-252A17.87,17.87,0,0,0,211,0H89.55c-.33.06-.68.1-1,.18H3.16V285.85Z"/><rect class="cls-4" x="3.16" y="0.18" width="3.69" height="285.67"/><polygon class="cls-5" points="219.64 295.28 214.03 285.85 3.16 285.85 8.77 295.28 219.64 295.28"/><rect class="cls-6" x="28.76" y="34.61" width="181.91" height="2.26"/><rect class="cls-6" x="28.76" y="52.59" width="181.91" height="2.26"/><rect class="cls-6" x="28.76" y="70.56" width="181.91" height="2.26"/><rect class="cls-6" x="28.76" y="88.54" width="181.91" height="2.26"/><rect class="cls-6" x="28.76" y="106.51" width="181.91" height="2.26"/><rect class="cls-6" x="28.76" y="124.48" width="181.91" height="2.26"/><rect class="cls-6" x="28.76" y="142.45" width="181.91" height="2.26"/><rect class="cls-6" x="28.76" y="160.43" width="181.91" height="2.26"/><rect class="cls-6" x="28.76" y="178.4" width="181.91" height="2.26"/><rect class="cls-6" x="28.76" y="196.38" width="181.91" height="2.26"/><rect class="cls-6" x="28.76" y="214.35" width="181.91" height="2.26"/><rect class="cls-6" x="28.76" y="232.33" width="181.91" height="2.26"/><rect class="cls-6" x="28.76" y="250.3" width="181.91" height="2.26"/><rect class="cls-7" x="192.59" y="19.62" width="1.53" height="243.56"/><path class="cls-8" d="M21.12,36.94A6.12,6.12,0,1,1,15,30.83,6.12,6.12,0,0,1,21.12,36.94Z"/><path class="cls-8" d="M21.12,71.59A6.12,6.12,0,1,1,15,65.48,6.11,6.11,0,0,1,21.12,71.59Z"/><path class="cls-8" d="M21.12,106.24A6.12,6.12,0,1,1,15,100.13,6.11,6.11,0,0,1,21.12,106.24Z"/><path class="cls-8" d="M21.12,140.89A6.12,6.12,0,1,1,15,134.77,6.11,6.11,0,0,1,21.12,140.89Z"/><path class="cls-8" d="M21.12,175.54A6.12,6.12,0,1,1,15,169.43,6.11,6.11,0,0,1,21.12,175.54Z"/><path class="cls-8" d="M21.12,210.19A6.12,6.12,0,1,1,15,204.07,6.12,6.12,0,0,1,21.12,210.19Z"/><path class="cls-8" d="M21.12,244.84A6.12,6.12,0,1,1,15,238.72,6.12,6.12,0,0,1,21.12,244.84Z"/><path class="cls-1" d="M14.11,38.88A9,9,0,0,0,9,33.56,8.65,8.65,0,0,0,2.65,34v5.34h.69a1.57,1.57,0,0,1-.28-.77A2.75,2.75,0,0,1,4.14,36.7,5.49,5.49,0,0,1,8,36.45a6.15,6.15,0,0,1,3.31,3.64,1.53,1.53,0,1,0,2.8-1.21Z"/><path class="cls-1" d="M14.11,72A9,9,0,0,0,9,66.66a8.6,8.6,0,0,0-6.34.46v4.34h.44a3.08,3.08,0,0,1,1-1.66A5.49,5.49,0,0,1,8,69.55a6.15,6.15,0,0,1,3.31,3.64A1.53,1.53,0,1,0,14.11,72Z"/><path class="cls-1" d="M14.11,105.08A9,9,0,0,0,9,99.76a8.6,8.6,0,0,0-6.34.46V104H3.3a4.09,4.09,0,0,1,.84-1A5.49,5.49,0,0,1,8,102.65a6.12,6.12,0,0,1,3.31,3.64,1.53,1.53,0,1,0,2.8-1.21Z"/><path class="cls-1" d="M14.11,140.72A9,9,0,0,0,9,135.4a8.58,8.58,0,0,0-6.34.47v4.38h.44a3,3,0,0,1,1-1.71A5.49,5.49,0,0,1,8,138.29a6.14,6.14,0,0,1,3.31,3.65,1.53,1.53,0,0,0,2.8-1.22Z"/><path class="cls-1" d="M14.11,175.35A9,9,0,0,0,9,170a8.6,8.6,0,0,0-6.34.46v4.16h.47a3.47,3.47,0,0,1,1-1.48A5.49,5.49,0,0,1,8,172.92a6.12,6.12,0,0,1,3.31,3.64,1.53,1.53,0,1,0,2.8-1.21Z"/><path class="cls-1" d="M14.11,209.46A9,9,0,0,0,9,204.13a8.58,8.58,0,0,0-6.34.47v4.82h.48a.78.78,0,0,1-.07-.25,2.77,2.77,0,0,1,1.08-1.9A5.56,5.56,0,0,1,8,207a6.12,6.12,0,0,1,3.31,3.64,1.53,1.53,0,1,0,2.8-1.21Z"/></g></g></svg>